<svg height="50" viewBox="0 0 50 50" width="50" xmlns="http://www.w3.org/2000/svg"><path d="M43.201 34.909a1.27 1.27 0 0 1-1.274 1.262 1.27 1.27 0 0 1-1.274-1.262v-8.47a1.27 1.27 0 0 1 1.274-1.262 1.27 1.27 0 0 1 1.274 1.263zM25.063 46.547c-7.578 0-13.742-6.11-13.742-13.62v-12.38c0-1.011.066-1.783.227-2.56.098.048.197.089.294.145 3.316 2.066 6.563 3.105 9.693 3.105 1.046 0 2.08-.117 3.098-.35 3.724-.85 6.399-3.069 7.975-4.75v2.708c.002.056.196 5.38 6.196 6.239v7.844c0 .84-.082 1.661-.23 2.46-1.861 1.308-4.58 2.236-7.612 2.628a1.484 1.484 0 0 0-1.004-.396h-3.629c-.693 0-1.275.48-1.437 1.118a3.087 3.087 0 0 1-2.15-1.138.907.907 0 0 0-1.264-.138.887.887 0 0 0-.14 1.253 4.896 4.896 0 0 0 4.523 1.769c.148.049.304.082.468.082h3.629c.566 0 1.055-.322 1.306-.787 2.464-.322 4.73-.972 6.594-1.897a13.759 13.759 0 0 1-12.795 8.665zM6.799 30.872c0-1.576 1.19-2.87 2.723-3.078v5.134c0 .345.016.686.039 1.026-1.552-.192-2.762-1.493-2.762-3.082zm2.299-8.74v-2.526c0-.589.042-1.178.108-1.76.17-.082.361-.145.574-.184-.18.884-.258 1.77-.258 2.884v1.585zm7.936-15.104c6.32-2.031 13.69 1.286 15.574 2.224v4.066c-.635.908-3.551 4.728-8.38 5.832-3.576.82-7.423-.03-11.454-2.543a5.869 5.869 0 0 0-1.6-.648l-.005-.002-.007-.001-.052-.014c-.839-.183-1.557-.113-2.157.079.332-.582.857-1.269 1.657-2.025.99-.438 2.362-.746 3.97-.039 3.648 1.602 6.73-.636 7.853-2.045a.887.887 0 0 0-.148-1.252.906.906 0 0 0-1.264.147c-.023.03-2.419 2.969-5.712 1.52-1.85-.813-3.488-.636-4.728-.228 1.646-2.519 3.808-4.22 6.453-5.071zm8.029-3.245c4.385 0 8.362 1.763 11.25 4.61a9.336 9.336 0 0 0-2.543-.556c-1.166-.62-7.45-3.755-13.932-3.172a15.987 15.987 0 0 1 5.225-.882zm9.344 5.936c4.218.754 4.392 4.313 4.397 4.452v9.107c-4.218-.755-4.392-4.313-4.397-4.452zm6.62 13.824a3.02 3.02 0 0 0-.425.16v-7.71c.276 1.161.426 2.37.426 3.613zm1.8 0v-3.937C42.826 9.898 34.856 2 25.061 2a17.828 17.828 0 0 0-13.435 6.119c-1.552 1.395-2.848 3.194-3.87 5.393a.824.824 0 0 0-.027.063c-.164.436-.074.745.052.945-1.466 2.11-1.22 3.618-1.175 3.824.076.35.357.617.712.684-.007.194-.02.386-.02.578v2.525h-.762c-.497 0-.9.4-.9.892s.403.891.9.891h2.985v2.077C6.993 26.205 5 28.31 5 30.872c0 2.651 2.136 4.813 4.792 4.895 1.348 7.14 7.68 12.563 15.27 12.563 7.058 0 13.027-4.69 14.915-11.087A3.062 3.062 0 0 0 45 34.909v-8.47c0-1.367-.92-2.512-2.174-2.896zM16.354 30.08c-.862 0-1.561.693-1.561 1.547 0 .855.699 1.548 1.561 1.548s1.562-.693 1.562-1.548c0-.854-.7-1.547-1.562-1.547m16.84 0c-.862 0-1.562.693-1.562 1.547 0 .855.7 1.548 1.561 1.548.863 0 1.562-.693 1.562-1.548 0-.854-.7-1.547-1.562-1.547m-16.851-3.442c-1.333 0-2.577.71-3.245 1.856a.886.886 0 0 0 .328 1.217.901.901 0 0 0 1.229-.325c.348-.595.995-.965 1.688-.965s1.34.37 1.689.966c.25.427.801.57 1.229.324a.887.887 0 0 0 .327-1.218 3.768 3.768 0 0 0-3.245-1.855m13.935 3.073a.901.901 0 0 0 1.228-.325 1.961 1.961 0 0 1 3.377 0 .898.898 0 0 0 1.228.325.886.886 0 0 0 .328-1.217 3.765 3.765 0 0 0-6.49 0 .886.886 0 0 0 .329 1.217" fill="#464646" fill-rule="evenodd"/></svg>