<svg height="50" viewBox="0 0 50 50" width="50" xmlns="http://www.w3.org/2000/svg"><path d="M25.05 19.265l.112-2.814 1.842 1.368c-.702.403-1.356.89-1.953 1.446zm15.969-1.34c.22 0 .407.2.407.437v15.016c0 .238-.186.438-.407.438h-17.88c-.221 0-.408-.2-.408-.438v-5.564c0-2.629.96-5.11 2.705-6.983 1.744-1.875 4.051-2.907 6.498-2.907zM17.89 18.982l5.945-2.75-.181 4.604s-.94 1.334-1.45 2.649zM8.399 7.277c.6-.45.992-1.195.992-2.04 0-.184-.02-.362-.055-.534l2.231 1.656zm-.34-2.04c0 .582-.441 1.056-.983 1.056s-.984-.474-.984-1.056c0-.583.442-1.056.984-1.056s.983.473.983 1.056zm.104 3.592l4.105-1.19-.843 4.594zm4.86 5.073l4.506-2.07-1.2 5.521zm10.155 1.077L17.66 17.53l1.243-5.726zm-6.073-4.509l-4.366 2.005.847-4.617zm25.27 26.21v1.153H18.517c-.145 0-.267-.13-.267-.286v-.58c0-.156.122-.287.267-.287zM5.175 7.707l1.018 1.06V26.51h-.547c-.288 0-.523.253-.523.562 0 .31.235.562.523.562h2.441c.288 0 .523-.252.523-.562 0-.309-.235-.562-.523-.562h-.562V10.16l14.21 14.833s-.337 1.563-.337 2.822v5.564c0 1.029.783 1.87 1.74 1.87h-4.621c-.88 0-1.6.773-1.6 1.718v.581c0 .945.72 1.718 1.6 1.718h24.36c.457 0 .83-.4.83-.891v-2.483c0-.353-.27-.643-.598-.643h-2.09c.957 0 1.74-.841 1.74-1.87V18.362c0-1.028-.783-1.87-1.74-1.87h-9.085c-1.224 0-2.401.23-3.496.648-.255.097-19.43-14.42-19.43-14.42-1.278-1.114-3.162-.914-4.213.453-1.051 1.366-.879 3.394.38 4.534zm30.532 35.422c.608 0 1.104.533 1.104 1.187s-.496 1.187-1.104 1.187-1.105-.532-1.105-1.187.496-1.187 1.105-1.187m0 3.806c1.345 0 2.436-1.173 2.436-2.619s-1.09-2.619-2.436-2.619-2.437 1.173-2.437 2.62 1.09 2.618 2.437 2.618m-5.58-3.806c.609 0 1.104.533 1.104 1.187s-.495 1.187-1.104 1.187c-.61 0-1.105-.532-1.105-1.187s.496-1.187 1.105-1.187m0 3.806c1.346 0 2.437-1.173 2.437-2.619s-1.091-2.619-2.437-2.619-2.437 1.173-2.437 2.62 1.09 2.618 2.437 2.618m-5.58-3.806c.609 0 1.104.533 1.104 1.187s-.495 1.187-1.104 1.187c-.609 0-1.104-.532-1.104-1.187s.495-1.187 1.104-1.187m0 3.806c1.346 0 2.437-1.173 2.437-2.619s-1.091-2.619-2.437-2.619-2.437 1.173-2.437 2.62 1.091 2.618 2.437 2.618m2.47-19.907c0-2.944 2.23-5.34 4.97-5.34h5.143v8.355H27.017zm-.292 4.447h10.696c.573 0 1.041-.503 1.041-1.118v-8.983c0-.615-.468-1.118-1.04-1.118h-5.435c-3.466 0-6.303 3.047-6.303 6.772v3.329c0 .615.469 1.118 1.041 1.118zM6.86 38.874c-2.496 0-4.526-2.182-4.526-4.864s2.03-4.864 4.526-4.864 4.526 2.182 4.526 4.864-2.03 4.864-4.526 4.864m0-11.16C3.623 27.714 1 30.533 1 34.01c0 3.477 2.623 6.296 5.859 6.296 3.236 0 5.859-2.819 5.859-6.296 0-3.477-2.623-6.296-5.86-6.296m33.516 16.602c0-1.793 1.358-3.252 3.026-3.252s3.026 1.46 3.026 3.252-1.357 3.252-3.026 3.252-3.026-1.459-3.026-3.252M19.794 40.8h20.73c-.909.859-1.482 2.116-1.482 3.517 0 1.264.466 2.41 1.223 3.252H20.053a4.855 4.855 0 0 0 1.223-3.252c0-1.401-.573-2.658-1.481-3.517m-5.756 3.385c0-.795.256-1.525.684-2.103.552-.626 1.332-1.017 2.195-1.017 1.668 0 3.026 1.46 3.026 3.252 0 1.745-1.285 3.172-2.89 3.248-1.675-.076-3.015-1.563-3.015-3.38m29.48-4.817c2.464 0 4.481 2.168 4.481 4.817S45.983 49 43.518 49h-26.33c-.045 0-.09-.002-.134-.004-.046.002-.09.004-.136.004-2.407 0-4.359-2.097-4.359-4.684 0-1.258.463-2.399 1.214-3.24.823-1.043 2.05-1.709 3.415-1.709zM4.132 33.893H5.7c0 .927.701 1.678 1.567 1.678v1.679c-1.73 0-3.134-1.503-3.134-3.357z" fill="#464646" fill-rule="evenodd"/></svg>